<svg xmlns="http://www.w3.org/2000/svg" viewBox="0 0 32 32"><path fill="#010101" d="M23.9,29.42l0-.07a1.07,1.07,0,0,0,.06-.3s0,0,0,0h0V3a1,1,0,0,0-1-1H17a1,1,0,0,0-1,1V8.32L13.94,2.66A1,1,0,0,0,13,2H8A1,1,0,0,0,7,3V29a1,1,0,0,0,2,0V4h3.3l3.76,10.34v0h0l5.22,13.06A18.79,18.79,0,0,0,17.72,27c-1.06-3.12-2.94-8.34-3.41-9.63l-2.37-6.71a1,1,0,0,0-1.88.66l2.21,6.25v9.48c-.39,0-.87.1-1.43.19a1,1,0,1,0,.34,2A14.47,14.47,0,0,1,13.27,29a1,1,0,0,0,1-1V23.18c.66,1.86,1.34,3.8,1.78,5.14A1,1,0,0,0,17,29a14.12,14.12,0,0,1,5.55.89l.05,0A1.11,1.11,0,0,0,23,30h0a1.13,1.13,0,0,0,.32-.06h0l.05,0,.11,0a.81.81,0,0,0,.14-.12l0,0A.92.92,0,0,0,23.9,29.42ZM22,4V23.81l-4-10V4Z"/></svg>